# xmcd CD database file
#
# Track frame offsets:
#	150
#	11887
#	26025
#	48500
#	59775
#	76912
#	89162
#	113762
#	133775
#	145487
#
# Disc length: 2132 seconds
#
# Revision: 0
# Processed by: cddbd v1.5.1PL0 Copyright (c) Steve Scherf et al.
# Submitted via: CDex 1.51
#
DISCID=9508520a
DTITLE=Various Artist - Springtime Jazz Favorites
DYEAR=1900
DGENRE=Jazz
TTITLE0=Spring in Manhattan
TTITLE1=April In My Heart
TTITLE2=April In Paris
TTITLE3=Spring In Central Park
TTITLE4=Spring Is Here
TTITLE5=Spring Will Be A Little Late This Year
TTITLE6=Misty
TTITLE7=Morning Mood
TTITLE8=I Got The Sun In The Morning
TTITLE9=It Might As Well Be Spring
EXTD=
EXTT0=
EXTT1=
EXTT2=
EXTT3=
EXTT4=
EXTT5=
EXTT6=
EXTT7=
EXTT8=
EXTT9=
PLAYORDER=
